<?xml version="1.0" encoding="UTF-8" standalone="no"?>
<!-- Created with Inkscape (http://www.inkscape.org/) -->

<svg
   xmlns:dc="http://purl.org/dc/elements/1.1/"
   xmlns:cc="http://creativecommons.org/ns#"
   xmlns:rdf="http://www.w3.org/1999/02/22-rdf-syntax-ns#"
   xmlns:svg="http://www.w3.org/2000/svg"
   xmlns="http://www.w3.org/2000/svg"
   xmlns:sodipodi="http://sodipodi.sourceforge.net/DTD/sodipodi-0.dtd"
   xmlns:inkscape="http://www.inkscape.org/namespaces/inkscape"
   width="325.01453mm"
   height="285.75mm"
   viewBox="0 0 325.01453 285.75"
   version="1.1"
   id="svg8"
   inkscape:version="0.92.3 (2405546, 2018-03-11)"
   sodipodi:docname="Tlaser logo.svg"
   inkscape:export-filename="/home/ficacador/3D Objects/My projects/Tlaser/images/Tlaser logo.png"
   inkscape:export-xdpi="96"
   inkscape:export-ydpi="96">
  <defs
     id="defs2" />
  <sodipodi:namedview
     id="base"
     pagecolor="#ffffff"
     bordercolor="#666666"
     borderopacity="1.0"
     inkscape:pageopacity="0.0"
     inkscape:pageshadow="2"
     inkscape:zoom="0.49497475"
     inkscape:cx="294.14445"
     inkscape:cy="559.78733"
     inkscape:document-units="mm"
     inkscape:current-layer="layer2"
     showgrid="false"
     inkscape:window-width="1920"
     inkscape:window-height="1052"
     inkscape:window-x="1366"
     inkscape:window-y="0"
     inkscape:window-maximized="1"
     fit-margin-top="0"
     fit-margin-left="0"
     fit-margin-right="0"
     fit-margin-bottom="0" />
  <metadata
     id="metadata5">
    <rdf:RDF>
      <cc:Work
         rdf:about="">
        <dc:format>image/svg+xml</dc:format>
        <dc:type
           rdf:resource="http://purl.org/dc/dcmitype/StillImage" />
        <dc:title></dc:title>
      </cc:Work>
    </rdf:RDF>
  </metadata>
  <g
     inkscape:label="Layer 1"
     inkscape:groupmode="layer"
     id="layer1"
     transform="translate(18.404145,-0.97464095)">
    <path
       style="fill:#e3d300;fill-opacity:1;stroke:#e3d300;stroke-width:2.64648104;stroke-linecap:round;stroke-miterlimit:4;stroke-dasharray:none;stroke-opacity:1"
       d="M 93.116172,181.62048 C 88.416586,173.45502 65.216125,133.25441 41.559598,92.285801 17.90307,51.317187 -1.3788915,17.72403 -1.2892051,17.634344 -1.1995187,17.544658 64.277303,17.525203 144.21485,17.59111 l 145.34098,0.119832 -8.88566,15.477814 c -25.64762,44.675205 -93.22252,161.746614 -93.59273,162.146494 -0.26648,0.28783 -5.90634,-5.01272 -14.91385,-14.0166 -17.95727,-17.95002 -17.95133,-17.93334 -4.42285,-12.4162 5.04137,2.05595 10.19557,4.18352 11.45378,4.72792 l 2.28765,0.98981 0.66261,-1.54179 c 0.55647,-1.29479 0.55935,-1.62139 0.018,-2.03871 -0.35452,-0.2733 -5.45949,-2.49506 -11.34435,-4.93723 -9.21908,-3.82584 -10.66731,-4.5644 -10.46526,-5.33702 0.22508,-0.86075 1.06332,-0.89672 20.8954,-0.89672 h 20.66092 v -2.61932 -2.61932 h -20.71646 -20.71645 v -1.13965 c 0,-0.62682 0.26787,-1.24729 0.59529,-1.37883 2.93025,-1.17731 21.57546,-9.01626 21.66976,-9.11055 0.2704,-0.2704 -0.95588,-3.13443 -1.34205,-3.13443 -0.22805,0 -5.18975,1.92868 -11.026,4.28596 -10.61549,4.28763 -12.27822,4.78992 -12.27822,3.70911 0,-0.3175 6.47891,-7.06898 14.39756,-15.00329 l 14.39754,-14.42603 -2.01733,-2.01735 -2.01734,-2.01733 -14.47617,14.47034 c -10.4355,10.43129 -14.68873,14.38878 -15.23766,14.17813 -0.41881,-0.16071 -0.76148,-0.47251 -0.76148,-0.6929 0,-0.22038 2.03593,-5.29846 4.52428,-11.28461 2.48836,-5.98616 4.52429,-11.03712 4.52429,-11.22437 0,-0.45892 -2.82014,-1.60453 -3.14649,-1.27818 -0.14218,0.14218 -1.84341,3.975 -3.78052,8.51737 l -3.52201,8.25887 -0.0141,-42.581313 -0.0141,-42.581309 14.40627,0.317776 c 11.25878,0.248349 15.34457,0.512191 18.70089,1.207624 8.28873,1.717426 15.31521,5.482288 22.21264,11.901771 l 3.64772,3.394946 h 4.09119 4.09119 V 46.285365 25.56891 H 144.04627 69.990886 v 20.716455 20.71646 h 4.083669 4.083661 l 3.792444,-3.452742 c 6.771478,-6.164933 12.497255,-9.356051 20.78278,-11.582765 3.34874,-0.899964 14.54963,-1.590519 26.1922,-1.614789 l 8.69139,-0.0181 -0.0322,42.74258 c -0.0213,28.255401 -0.19033,42.417611 -0.49869,41.783821 -0.25655,-0.52733 -1.92716,-4.38488 -3.71247,-8.57233 -2.93903,-6.89352 -3.34989,-7.60148 -4.34444,-7.48581 -2.54389,0.29586 -2.49356,0.57138 2.21699,12.13481 2.47122,6.06632 4.38656,11.30735 4.25633,11.64674 -0.13024,0.3394 -0.5101,0.61708 -0.84416,0.61708 -0.33405,0 -7.08705,-6.47707 -15.00666,-14.39349 l -14.3993,-14.39349 -1.91757,1.87246 -1.91759,1.87247 14.62233,14.67192 c 18.28497,18.34702 18.24266,18.11673 2.10558,11.46069 -10.60031,-4.37232 -11.16633,-4.55017 -11.78565,-3.70319 -1.48244,2.02736 -1.07037,2.31298 10.32426,7.15624 6.03614,2.56565 11.07309,4.82382 11.19319,5.01815 0.12011,0.19433 0.0876,0.69413 -0.0722,1.11066 -0.2594,0.67601 -2.48444,0.75734 -20.71799,0.75734 H 86.659308 v 2.61427 2.61426 l 20.590962,0.12412 c 18.4041,0.11093 20.60648,0.20477 20.73711,0.88344 0.11157,0.57965 -2.50708,1.86894 -11.06616,5.44837 -6.9247,2.89594 -11.21229,4.93951 -11.21229,5.34404 0,1.02227 0.92468,2.49751 1.56453,2.49607 0.3182,-0.001 5.40048,-2.01807 11.29396,-4.48299 15.65994,-6.54973 15.68964,-6.70058 -2.22007,11.27776 -7.88934,7.91956 -14.42125,14.65081 -14.51536,14.9583 -0.0941,0.30749 -4.016225,-6.12176 -8.715812,-14.28722 z"
       id="path871"
       inkscape:connector-curvature="0" />
    <path
       style="fill:#e3d300;fill-opacity:1;stroke:#e3d300;stroke-width:2.64648104;stroke-linecap:round;stroke-miterlimit:4;stroke-dasharray:none;stroke-opacity:1"
       d="m 123.15519,233.62248 c -11.48904,-19.89917 -20.79401,-36.27547 -20.67769,-36.39179 0.11631,-0.1163 0.71401,0.32345 1.32822,0.97725 0.61421,0.6538 1.34267,1.18872 1.61881,1.18872 0.27613,0 6.98823,-6.47336 14.91577,-14.38525 10.92312,-10.90156 14.54731,-14.25165 14.96538,-13.83356 0.41809,0.41807 -0.51592,3.18095 -3.85679,11.40874 -2.42466,5.97139 -4.50446,11.09433 -4.62177,11.38431 -0.27906,0.68982 2.60596,1.8942 3.17481,1.32535 0.23539,-0.2354 2.45062,-5.249 4.9227,-11.14135 6.49444,-15.47982 6.23304,-15.88426 6.38832,9.88406 l 0.12413,20.59739 h 2.85237 2.85239 V 193.9199 c 0,-17.01717 0.11417,-20.71646 0.63936,-20.71646 0.86252,0 1.60781,1.51237 6.21921,12.62037 2.36543,5.69788 4.23834,9.58069 4.66145,9.66387 0.38902,0.0765 1.16203,-0.24497 1.71779,-0.71436 l 1.01049,-0.85342 -4.49849,-10.95353 c -2.47417,-6.02444 -4.50134,-11.09133 -4.50482,-11.25976 -0.003,-0.16842 0.35775,-0.44594 0.80277,-0.61671 0.61189,-0.23481 4.29828,3.17727 15.12351,13.99814 7.87292,7.86975 14.54777,14.30862 14.833,14.30862 0.28524,0 0.9077,-0.42993 1.38324,-0.9554 0.47555,-0.52547 0.94088,-0.87914 1.03409,-0.78594 0.1362,0.1362 -40.87168,71.50007 -41.37585,72.00425 -0.0787,0.0787 -9.54335,-16.13793 -21.0324,-36.03709 z"
       id="path873"
       inkscape:connector-curvature="0" />
  </g>
  <g
     inkscape:groupmode="layer"
     id="layer2"
     inkscape:label="Layer 2"
     transform="translate(18.404145,-0.97464095)">
    <path
       style="fill:#000000;fill-opacity:1;stroke:#000000;stroke-width:0.26464811;stroke-miterlimit:4;stroke-dasharray:none;stroke-opacity:1"
       d="m 139.68859,286.15988 c -3.35583,-0.93377 -6.55014,-3.15396 -8.66156,-6.02022 C 129.48676,278.04876 -15.743476,26.529348 -16.832874,24.066035 -18.402287,20.517316 -18.68214,17.078947 -17.704601,13.355602 -16.308524,8.038043 -12.797982,4.1677572 -7.4136445,2.0100871 L -5.1599529,1.106965 H 143.85569 292.87131 l 2.33358,0.8003549 c 9.25312,3.1735701 13.79694,13.4118791 9.84113,22.1744471 -0.90863,2.012729 -145.59599,252.851143 -147.29979,255.367503 -2.09654,3.09637 -5.84863,5.74855 -9.51288,6.72424 -2.09469,0.55775 -6.51668,0.55069 -8.54476,-0.0136 z M 217.18334,143.84296 C 257.28245,74.382217 290.02869,17.488578 289.95275,17.41264 289.87675,17.3367 224.1712,17.312245 143.94028,17.3583 L -1.9341279,17.442023 70.05454,142.12177 c 39.59377,68.57387 72.44382,125.48249 73.00013,126.46364 0.55629,0.98112 1.05863,1.7312 1.11631,1.66683 0.0577,-0.0644 32.91325,-56.94854 73.01236,-126.40926 z m -75.49454,50.14407 v -20.64235 l -1.03306,-0.2269 c -0.56819,-0.12474 -1.15602,-0.0991 -1.30631,0.0568 -0.15028,0.15605 -2.31382,5.22489 -4.80787,11.26409 -2.49404,6.0392 -4.58117,11.02689 -4.63805,11.08379 -0.16745,0.16744 -2.87582,-1.04082 -2.87954,-1.28463 -0.003,-0.12247 2.10018,-5.2969 4.67122,-11.49871 2.57104,-6.20182 4.54251,-11.32008 4.38107,-11.3739 -0.16146,-0.0538 -0.57735,-0.31034 -0.92421,-0.57006 -0.58533,-0.43825 -1.67949,0.57535 -15.21427,14.09414 l -14.58359,14.56636 -1.74877,-1.74876 -1.74875,-1.74877 14.57913,-14.58359 14.57914,-14.58359 -0.76082,-0.95249 -0.76083,-0.95249 -10.98738,4.56685 c -6.04306,2.51179 -11.1552,4.63658 -11.36034,4.72177 -0.45656,0.18963 -1.60238,-2.54133 -1.22471,-2.91899 0.14856,-0.14856 5.21929,-2.31826 11.26831,-4.82156 6.049,-2.50331 11.03675,-4.58575 11.08386,-4.62764 0.0471,-0.0419 -0.009,-0.55017 -0.12499,-1.12951 l -0.21067,-1.05336 H 107.3102 86.683043 v -2.50026 -2.50027 h 20.668837 20.66883 l 0.05,-0.83342 c 0.0275,-0.45837 0.065,-0.99614 0.0833,-1.19503 0.0183,-0.1989 -4.95679,-2.42625 -11.05584,-4.94966 -6.09906,-2.52341 -11.18556,-4.6844 -11.30335,-4.80219 -0.23275,-0.23275 0.86475,-2.89044 1.19092,-2.88392 0.10962,0.003 5.22493,2.09472 11.36724,4.65007 l 11.16784,4.64609 0.57599,-0.733 c 0.31679,-0.40314 0.57932,-0.88363 0.58339,-1.06779 0.004,-0.18415 -6.51625,-6.85717 -14.4896,-14.82895 l -14.49703,-14.49416 1.73925,-1.76114 1.73927,-1.76113 14.58835,14.58553 14.58837,14.58554 0.9197,-0.5706 c 0.50582,-0.31383 0.87505,-0.76193 0.82049,-0.99575 -0.0545,-0.23384 -2.11726,-5.30423 -4.58382,-11.26751 -2.46654,-5.9633 -4.48461,-10.93503 -4.48461,-11.04831 0,-0.27664 2.70812,-1.34839 2.90634,-1.15016 0.0859,0.0859 1.86222,4.25509 3.94738,9.26492 l 3.79121,9.10873 0.0113,-43.421218 0.0113,-43.421219 h -12.49761 c -16.20002,0 -19.98146,0.384716 -26.761285,2.722638 -6.524728,2.249962 -11.520918,5.342306 -16.41907,10.16244 l -3.505817,3.449974 H 74.426009 70.347697 V 46.111687 25.609535 h 73.841073 73.84108 v 20.502152 20.502156 h -4.16919 -4.16918 l -3.74832,-3.608744 c -5.1427,-4.951247 -9.70648,-7.761444 -16.27766,-10.023174 -6.74362,-2.321088 -10.50951,-2.703135 -26.64513,-2.703135 h -12.33091 l 0.009,43.254539 0.009,43.254541 3.74104,-9.07592 c 2.05757,-4.99176 3.89106,-9.06856 4.07442,-9.05956 0.18335,0.009 0.88972,0.26776 1.56971,0.57502 l 1.23634,0.55868 -4.68836,11.32132 -4.68837,11.32134 0.95176,0.76024 0.95175,0.76023 14.58359,-14.57914 14.58359,-14.57913 1.74877,1.74876 1.74876,1.74877 -14.56634,14.58359 c -13.51879,13.53477 -14.5324,14.62893 -14.09414,15.21425 0.25971,0.34688 0.51605,0.76219 0.56962,0.92294 0.0535,0.16073 5.17873,-1.81073 11.38922,-4.38107 6.2105,-2.57032 11.39026,-4.67333 11.5106,-4.67333 0.12033,0 0.46258,0.65779 0.76056,1.46175 l 0.54176,1.46174 -11.0543,4.57047 c -6.07986,2.51376 -11.18198,4.69145 -11.33804,4.8393 -0.15607,0.14787 -0.18166,0.73371 -0.0568,1.3019 l 0.2269,1.03305 h 20.64234 20.64235 v 2.50026 2.50027 h -20.65931 -20.6593 l -0.28556,1.08345 c -0.22611,0.8579 -0.17604,1.12776 0.24049,1.2963 6.80967,2.75546 21.9171,9.07827 22.07318,9.23813 0.11642,0.1192 -0.0629,0.84913 -0.39819,1.6221 l -0.60974,1.4054 -4.10229,-1.69473 c -2.25625,-0.9321 -7.31667,-3.02719 -11.24537,-4.65574 -3.9287,-1.62856 -7.2318,-2.96103 -7.34023,-2.96103 -0.10847,0 -0.45104,0.41257 -0.76136,0.91678 l -0.56421,0.91675 14.56911,14.58359 14.56913,14.58359 -1.74877,1.74877 -1.74876,1.74876 -14.58359,-14.56913 -14.58359,-14.56911 -0.91676,0.5642 c -0.50422,0.31034 -0.91676,0.65824 -0.91676,0.7731 0,0.11491 2.01305,5.06816 4.47344,11.0073 2.46039,5.93912 4.52311,11.00262 4.58381,11.25223 0.0653,0.26855 -0.47421,0.70793 -1.32142,1.07615 l -1.4318,0.6223 -0.59901,-1.40951 c -0.32945,-0.77523 -2.44606,-5.87247 -4.70357,-11.32721 -4.21984,-10.19626 -4.28235,-10.30081 -5.80801,-9.71536 -0.473,0.18152 -0.52733,2.3283 -0.52733,20.83552 v 20.63317 h -2.50027 -2.50025 z"
       id="path850"
       inkscape:connector-curvature="0" />
  </g>
</svg>
